<?xml version="1.0" encoding="UTF-8" standalone="no"?>
<svg
   xmlns:dc="http://purl.org/dc/elements/1.1/"
   xmlns:cc="http://creativecommons.org/ns#"
   xmlns:rdf="http://www.w3.org/1999/02/22-rdf-syntax-ns#"
   xmlns:svg="http://www.w3.org/2000/svg"
   xmlns="http://www.w3.org/2000/svg"
   id="svg8"
   version="1.1"
   viewBox="0 0 78.08502 18.056739"
   height="68.245941"
   width="295.12451">
  <text
     id="DeliveredTextContainer"
     y="14.18215"
     x="16.9853647"
     style="font-style:normal;font-variant:normal;font-weight:500;font-stretch:normal;font-size:14.49148178px;line-height:125%;font-family:ori1Uni;-inkscape-font-specification:'ori1Uni Medium';letter-spacing:0px;word-spacing:0px;opacity:1;fill:#000000;fill-opacity:1;stroke:none;stroke-width:0.36228707px;stroke-linecap:butt;stroke-linejoin:miter;stroke-opacity:1"
     xml:space="preserve">
     <tspan
       dx="0 -0.16640717 0 0.066562876 0 -0.39937726 0 -0.066562876"
       style="font-style:normal;font-variant:normal;font-weight:normal;font-stretch:normal;font-family:'Patua One';-inkscape-font-specification:'Patua One';word-spacing:0px;fill:#000000;stroke-width:0.36228707px"
       y="14.18215"
       x="16.9853647"
       id="DeliveredText">Delivered</tspan>
  </text>
  <path
     id="Hexagon"
     d="m 7.44699355,16.53286 -5.3740767,-3.10273 a 1.5000001,1.5000001 59.999998 0 1 -0.75,-1.29904 l -2e-7,-6.20544 a 1.5,1.5 120 0 1 0.75,-1.29904 l 5.3740765,-3.10273 a 1.5,1.5 -180 0 1 1.5000002,0 l 5.374077,3.10273 a 1.5000001,1.5000001 59.999998 0 1 0.75,1.29903 v 6.20545 a 1.5,1.5 120 0 1 -0.75,1.29904 l -5.374077,3.10273 a 1.5,1.5 -180 0 1 -1.4999998,0 z"
     style="opacity:1;fill:#aa0000;stroke:none;stroke-width:2;stroke-linecap:round;stroke-linejoin:miter;stroke-miterlimit:4;stroke-dasharray:none;stroke-dashoffset:0" />
  <path
     id="Check"
     d="m 6.6621438,8.14223 1.5348499,0.88615 3.578451,-2.06602"
     style="fill:none;fill-rule:evenodd;stroke:#ffffff;stroke-width:1.58749998;stroke-linecap:round;stroke-linejoin:round;stroke-miterlimit:4;stroke-dasharray:none;stroke-opacity:1" />
</svg>
